<svg width="200" height="40" viewBox="0 0 200 40" fill="none" xmlns="http://www.w3.org/2000/svg">
<g clip-path="url(#clip0_102_2)">
<g filter="url(#filter0_d_102_2)">
<path d="M31.1328 27.5703C30.3672 27.5703 29.6797 27.3672 29.0703 26.9609C28.4609 26.5703 27.9453 26.0312 27.5234 25.3438C27.1016 24.6562 26.7891 23.8594 26.5859 22.9531C26.3984 22.0469 26.3281 21.0859 26.375 20.0703C26.4375 18.9922 26.6016 17.8828 26.8672 16.7422C27.1328 15.5859 27.4922 14.4609 27.9453 13.3672C28.3984 12.2734 28.9219 11.2344 29.5156 10.25C30.125 9.26562 30.7891 8.40625 31.5078 7.67188C32.2422 6.9375 33.0234 6.35938 33.8516 5.9375C34.6797 5.5 35.5469 5.28125 36.4531 5.28125C37.0469 5.28125 37.5469 5.42969 37.9531 5.72656C38.3594 6.02344 38.6719 6.41406 38.8906 6.89844C39.125 7.36719 39.2734 7.89844 39.3359 8.49219C39.3984 9.08594 39.3906 9.67969 39.3125 10.2734C39.25 10.8516 39.1172 11.4141 38.9141 11.9609C38.7266 12.4922 38.4922 12.9297 38.2109 13.2734C37.8516 13.7266 37.5234 13.9688 37.2266 14C36.9453 14.0156 36.6719 13.9297 36.4062 13.7422C36.2969 13.6484 36.1875 13.5391 36.0781 13.4141C35.9688 13.3047 35.8516 13.1719 35.7266 13.0156C35.6016 12.8438 35.4688 12.6328 35.3281 12.3828C35.625 12.2734 35.8984 12.0938 36.1484 11.8438C36.3984 11.5781 36.6094 11.2812 36.7812 10.9531C36.9688 10.625 37.1094 10.2812 37.2031 9.92188C37.3125 9.54688 37.375 9.17969 37.3906 8.82031C37.4062 8.53906 37.3984 8.26562 37.3672 8C37.3359 7.71875 37.2734 7.47656 37.1797 7.27344C37.0859 7.05469 36.9531 6.88281 36.7812 6.75781C36.625 6.61719 36.4219 6.54688 36.1719 6.54688C35.5469 6.54688 34.9375 6.78906 34.3438 7.27344C33.75 7.74219 33.1875 8.375 32.6562 9.17188C32.1406 9.95312 31.6562 10.8516 31.2031 11.8672C30.7656 12.8828 30.3828 13.9297 30.0547 15.0078C29.7266 16.0859 29.4609 17.1484 29.2578 18.1953C29.0547 19.2422 28.9297 20.1953 28.8828 21.0547C28.8203 22.1328 28.8594 23.0078 29 23.6797C29.1406 24.3516 29.3281 24.875 29.5625 25.25C29.8125 25.6406 30.0781 25.8984 30.3594 26.0234C30.6406 26.1641 30.8984 26.2344 31.1328 26.2344C31.5703 26.2344 32.0625 26.0312 32.6094 25.625C33.1562 25.2188 33.6797 24.6641 34.1797 23.9609C34.6797 23.2734 35.125 22.4766 35.5156 21.5703C35.9219 20.6641 36.2109 19.7109 36.3828 18.7109C35.9922 18.7109 35.5938 18.7188 35.1875 18.7344C34.7969 18.7344 34.4219 18.7422 34.0625 18.7578C33.7031 18.7734 33.3828 18.7969 33.1016 18.8281C32.8203 18.8438 32.6016 18.8672 32.4453 18.8984C32.3359 18.8516 32.2578 18.7969 32.2109 18.7344C32.1797 18.6719 32.1484 18.6016 32.1172 18.5234C32.0859 18.4609 32.0703 18.3828 32.0703 18.2891C32.0703 18.1953 32.0859 18.1094 32.1172 18.0312C32.1484 17.9531 32.1875 17.875 32.2344 17.7969C32.2812 17.7031 32.3438 17.6094 32.4219 17.5156C32.9219 17.4219 33.4141 17.3438 33.8984 17.2812C34.3828 17.2188 34.8828 17.1719 35.3984 17.1406C35.9297 17.0938 36.4922 17.0625 37.0859 17.0469C37.6953 17.0156 38.375 16.9922 39.125 16.9766C39.4375 16.9609 39.625 17 39.6875 17.0938C39.7656 17.1875 39.7422 17.4219 39.6172 17.7969C39.5234 18.0938 39.3984 18.3359 39.2422 18.5234C39.1016 18.7109 38.8594 18.7891 38.5156 18.7578C38.4062 18.7578 38.3203 18.75 38.2578 18.7344C38.1172 19.6562 37.8203 20.6328 37.3672 21.6641C36.9141 22.6953 36.3594 23.6484 35.7031 24.5234C35.0469 25.3984 34.3203 26.125 33.5234 26.7031C32.7422 27.2812 31.9453 27.5703 31.1328 27.5703ZM39.8047 22.8828C39.6953 23.0547 39.5781 23.1641 39.4531 23.2109C39.3125 23.2734 39.1953 23.2812 39.1016 23.2344C38.9922 23.2031 38.9219 23.125 38.8906 23C38.8594 22.875 38.8906 22.7188 38.9844 22.5312C39.0312 22.4375 39.1406 22.2266 39.3125 21.8984C39.4688 21.5703 39.6641 21.1797 39.8984 20.7266C40.1172 20.2578 40.3594 19.7578 40.625 19.2266C40.8906 18.6797 41.1406 18.1641 41.375 17.6797C41.625 17.1953 41.8516 16.7656 42.0547 16.3906C42.2578 16 42.4062 15.7188 42.5 15.5469C42.3281 15.3906 42.2109 15.2812 42.1484 15.2188C42.0859 15.1406 42.0391 14.9844 42.0078 14.75C41.9766 14.5469 42.0234 14.2812 42.1484 13.9531C42.2734 13.625 42.4375 13.3125 42.6406 13.0156C42.8438 12.7031 43.0703 12.4375 43.3203 12.2188C43.5703 12 43.8125 11.8906 44.0469 11.8906C44.4844 11.8906 44.7891 12.0312 44.9609 12.3125C45.1484 12.5938 45.2578 12.8828 45.2891 13.1797C45.3203 13.3828 45.3047 13.6406 45.2422 13.9531C45.1797 14.2656 45.0625 14.5469 44.8906 14.7969C44.9375 14.8281 45 14.8672 45.0781 14.9141C45.1562 14.9453 45.2812 14.9609 45.4531 14.9609C45.7031 14.9609 45.875 14.9453 45.9688 14.9141C46.0781 14.8828 46.2422 14.8672 46.4609 14.8672C46.7266 14.8672 46.9453 14.9375 47.1172 15.0781C47.2891 15.2031 47.4297 15.3672 47.5391 15.5703C47.6484 15.7578 47.7266 15.9688 47.7734 16.2031C47.8359 16.4219 47.875 16.625 47.8906 16.8125C47.9375 17.2031 47.8359 17.6094 47.5859 18.0312C47.3359 18.4531 47.0312 18.9141 46.6719 19.4141C46.4531 19.7266 46.2344 20.0781 46.0156 20.4688C45.7969 20.8594 45.7031 21.2109 45.7344 21.5234C45.7656 21.7266 45.8203 21.8906 45.8984 22.0156C45.9766 22.1406 46.1953 22.2031 46.5547 22.2031C46.8203 22.2031 47.1094 22.1094 47.4219 21.9219C47.75 21.7188 48.0781 21.4688 48.4062 21.1719C48.75 20.8594 49.0859 20.5234 49.4141 20.1641C49.7422 19.7891 50.0469 19.4297 50.3281 19.0859C50.6094 18.7266 50.8438 18.4062 51.0312 18.125C51.2344 17.8438 51.3828 17.6406 51.4766 17.5156C51.5547 17.3906 51.6562 17.3047 51.7812 17.2578C51.9062 17.2109 52.0156 17.2109 52.1094 17.2578C52.2031 17.3047 52.2578 17.3984 52.2734 17.5391C52.3047 17.6797 52.25 17.8672 52.1094 18.1016C52.0156 18.2578 51.8516 18.5078 51.6172 18.8516C51.3984 19.1953 51.125 19.5781 50.7969 20C50.4844 20.4219 50.1328 20.8594 49.7422 21.3125C49.3516 21.75 48.9375 22.1562 48.5 22.5312C48.0781 22.8906 47.6484 23.1875 47.2109 23.4219C46.7891 23.6562 46.3828 23.7734 45.9922 23.7734C45.5859 23.7734 45.25 23.6953 44.9844 23.5391C44.7188 23.3828 44.5 23.1953 44.3281 22.9766C44.1719 22.7422 44.0547 22.4922 43.9766 22.2266C43.9141 21.9453 43.8906 21.6875 43.9062 21.4531C43.9219 21.2656 43.9688 21.0703 44.0469 20.8672C44.1406 20.6484 44.2422 20.4297 44.3516 20.2109C44.4766 19.9766 44.6016 19.75 44.7266 19.5312C44.8672 19.2969 44.9922 19.0703 45.1016 18.8516C45.3672 18.3984 45.5781 18.0156 45.7344 17.7031C45.9062 17.375 45.9922 17.1016 45.9922 16.8828C45.9922 16.7422 45.9609 16.6172 45.8984 16.5078C45.8359 16.3984 45.7344 16.3438 45.5938 16.3438C45.5 16.3438 45.4297 16.3516 45.3828 16.3672C45.3516 16.3672 45.3125 16.3672 45.2656 16.3672C45.2344 16.3672 45.1797 16.375 45.1016 16.3906C45.0391 16.3906 44.9375 16.3906 44.7969 16.3906C44.5938 16.3906 44.4219 16.3594 44.2812 16.2969C44.1406 16.2344 44.0078 16.1875 43.8828 16.1562C43.8203 16.2656 43.6797 16.5 43.4609 16.8594C43.2422 17.2188 42.9844 17.6406 42.6875 18.125C42.4062 18.6094 42.1016 19.1172 41.7734 19.6484C41.4609 20.1797 41.1641 20.6797 40.8828 21.1484C40.6016 21.6016 40.3672 21.9922 40.1797 22.3203C39.9766 22.6328 39.8516 22.8203 39.8047 22.8828ZM62.4688 18.3359C62.25 18.6484 61.9688 19.0391 61.625 19.5078C61.2812 19.9609 60.9219 20.4219 60.5469 20.8906C60.1875 21.3438 59.8281 21.7656 59.4688 22.1562C59.125 22.5312 58.8359 22.7969 58.6016 22.9531C58.4453 23.0469 58.2656 23.125 58.0625 23.1875C57.8594 23.25 57.6484 23.2891 57.4297 23.3047C57.2266 23.3203 57.0312 23.3047 56.8438 23.2578C56.6562 23.2266 56.4922 23.1641 56.3516 23.0703C56.2109 22.9609 56.0938 22.8047 56 22.6016C55.9219 22.4297 55.8438 22.2031 55.7656 21.9219C55.7031 21.6406 55.6797 21.2891 55.6953 20.8672C55.3203 21.4922 54.9062 21.9766 54.4531 22.3203C54 22.6484 53.5703 22.8906 53.1641 23.0469C52.6953 23.2188 52.2266 23.3203 51.7578 23.3516C51.5391 23.3516 51.3047 23.2734 51.0547 23.1172C50.8047 22.9766 50.5938 22.75 50.4219 22.4375C50.25 22.1094 50.1406 21.6953 50.0938 21.1953C50.0469 20.6797 50.1094 20.0703 50.2812 19.3672C50.5 18.4141 50.8438 17.5469 51.3125 16.7656C51.7969 15.9844 52.3203 15.3203 52.8828 14.7734C53.4453 14.2109 54 13.7891 54.5469 13.5078C55.0938 13.2266 55.5469 13.1016 55.9062 13.1328C56.3281 13.2109 56.6719 13.3359 56.9375 13.5078C57.1562 13.6641 57.2969 13.8984 57.3594 14.2109C57.4375 14.5078 57.3125 14.9062 56.9844 15.4062C57.2031 15.3594 57.3828 15.3281 57.5234 15.3125C57.6797 15.2969 57.7969 15.2891 57.875 15.2891C57.9688 15.2891 58.0312 15.2969 58.0625 15.3125C58.0781 15.3438 58.0859 15.4141 58.0859 15.5234C58.0859 15.6172 58.0625 15.7969 58.0156 16.0625C57.9688 16.3281 57.8984 16.6875 57.8047 17.1406C57.7109 17.5938 57.5859 18.1797 57.4297 18.8984C57.3984 19.0391 57.3672 19.1719 57.3359 19.2969C57.3203 19.4062 57.2969 19.5234 57.2656 19.6484C57.25 19.7578 57.2266 19.8906 57.1953 20.0469C57.1641 20.2031 57.125 20.3984 57.0781 20.6328C57.0625 20.7734 57.0547 20.9297 57.0547 21.1016C57.0703 21.2578 57.1016 21.4062 57.1484 21.5469C57.1953 21.6875 57.2656 21.8047 57.3594 21.8984C57.4688 21.9766 57.6172 22.0156 57.8047 22.0156C57.9609 22.0156 58.1641 21.9219 58.4141 21.7344C58.6641 21.5312 58.9297 21.2812 59.2109 20.9844C59.4922 20.6719 59.7812 20.3359 60.0781 19.9766C60.3906 19.6016 60.6797 19.2422 60.9453 18.8984C61.2109 18.5547 61.4453 18.25 61.6484 17.9844C61.8672 17.7188 62.0234 17.5234 62.1172 17.3984C62.2422 17.2578 62.3672 17.1797 62.4922 17.1641C62.6172 17.1328 62.7109 17.1641 62.7734 17.2578C62.8359 17.3516 62.8438 17.4922 62.7969 17.6797C62.7656 17.8672 62.6562 18.0859 62.4688 18.3359ZM55.6016 19.3672C55.6797 19.0547 55.7734 18.6875 55.8828 18.2656C55.9922 17.8438 56.0859 17.4375 56.1641 17.0469C56.2422 16.6562 56.2969 16.3359 56.3281 16.0859C56.375 15.8203 56.3672 15.6953 56.3047 15.7109C56.2266 15.7266 56.1406 15.75 56.0469 15.7812C55.9688 15.8125 55.8672 15.8359 55.7422 15.8516C55.6172 15.8672 55.4922 15.8906 55.3672 15.9219C55.4922 15.6719 55.5625 15.4688 55.5781 15.3125C55.6094 15.1406 55.6172 15.0078 55.6016 14.9141C55.5859 14.8047 55.5547 14.7188 55.5078 14.6562C55.3359 14.5156 55.0312 14.6328 54.5938 15.0078C54.1719 15.3672 53.6797 16.0391 53.1172 17.0234C52.8828 17.4297 52.6953 17.8672 52.5547 18.3359C52.4141 18.7891 52.3125 19.2188 52.25 19.625C52.2031 20.0312 52.1953 20.3906 52.2266 20.7031C52.2578 21 52.3203 21.1953 52.4141 21.2891C52.5859 21.4609 52.7812 21.5469 53 21.5469C53.2188 21.5312 53.4375 21.4688 53.6562 21.3594C53.8906 21.2344 54.1172 21.0781 54.3359 20.8906C54.5703 20.7031 54.7734 20.5078 54.9453 20.3047C55.1328 20.1016 55.2812 19.9141 55.3906 19.7422C55.5156 19.5703 55.5859 19.4453 55.6016 19.3672ZM64.8828 22.2031C65.3672 22.2031 65.8984 22.0156 66.4766 21.6406C67.0703 21.25 67.6406 20.7969 68.1875 20.2812C68.75 19.7656 69.2578 19.2422 69.7109 18.7109C70.1797 18.1641 70.5312 17.7266 70.7656 17.3984C70.9062 17.1953 71.0391 17.0781 71.1641 17.0469C71.2891 17 71.3828 17.0156 71.4453 17.0938C71.5078 17.1719 71.5312 17.2969 71.5156 17.4688C71.5 17.625 71.4297 17.8047 71.3047 18.0078C71.1953 18.1953 71.0078 18.4688 70.7422 18.8281C70.4922 19.1719 70.1875 19.5547 69.8281 19.9766C69.4844 20.3828 69.0859 20.8047 68.6328 21.2422C68.1953 21.6641 67.7344 22.0547 67.25 22.4141C66.7656 22.7578 66.2656 23.0391 65.75 23.2578C65.2344 23.4922 64.7266 23.6094 64.2266 23.6094C63.5391 23.6094 62.9609 23.4766 62.4922 23.2109C62.0391 22.9609 61.6719 22.6328 61.3906 22.2266C61.125 21.8203 60.9375 21.375 60.8281 20.8906C60.7188 20.3906 60.6641 19.8984 60.6641 19.4141C60.6641 18.9297 60.7734 18.3281 60.9922 17.6094C61.2109 16.8906 61.5312 16.2031 61.9531 15.5469C62.3906 14.875 62.9375 14.3047 63.5938 13.8359C64.25 13.3516 65.0234 13.1094 65.9141 13.1094C66.4141 13.1094 66.8359 13.2812 67.1797 13.625C67.5391 13.9688 67.7109 14.4375 67.6953 15.0312C67.6953 15.3125 67.6484 15.5938 67.5547 15.875C67.4609 16.1406 67.3359 16.3828 67.1797 16.6016C67.0234 16.8047 66.8359 16.9688 66.6172 17.0938C66.4141 17.2188 66.1875 17.2812 65.9375 17.2812C65.7344 17.2812 65.5781 17.2109 65.4688 17.0703C65.375 16.9141 65.3125 16.7422 65.2812 16.5547C65.2656 16.3516 65.2656 16.1562 65.2812 15.9688C65.3125 15.7812 65.3438 15.6562 65.375 15.5938C65.4531 15.4844 65.5391 15.4062 65.6328 15.3594C65.7266 15.3125 65.8359 15.2578 65.9609 15.1953C66.0547 15.1484 66.125 15.0781 66.1719 14.9844C66.2344 14.8906 66.2656 14.7891 66.2656 14.6797C66.2656 14.5703 66.2344 14.4766 66.1719 14.3984C66.1094 14.3203 66.0078 14.2812 65.8672 14.2812C65.7266 14.2812 65.4688 14.3984 65.0938 14.6328C64.7344 14.8516 64.3594 15.1875 63.9688 15.6406C63.5938 16.0781 63.2578 16.6328 62.9609 17.3047C62.6641 17.9766 62.5078 18.7578 62.4922 19.6484C62.4766 20.1641 62.5469 20.5859 62.7031 20.9141C62.8594 21.2422 63.0547 21.5 63.2891 21.6875C63.5234 21.875 63.7812 22.0078 64.0625 22.0859C64.3438 22.1641 64.6172 22.2031 64.8828 22.2031ZM74.7734 9.19531C74.7266 9.36719 74.6328 9.53906 74.4922 9.71094C74.3672 9.86719 74.2188 10 74.0469 10.1094C73.8906 10.2031 73.7266 10.2656 73.5547 10.2969C73.3828 10.3281 73.2422 10.2969 73.1328 10.2031C72.8047 9.95312 72.6328 9.6875 72.6172 9.40625C72.6016 9.10938 72.6719 8.83594 72.8281 8.58594C72.9844 8.32031 73.1797 8.10156 73.4141 7.92969C73.6484 7.74219 73.8516 7.63281 74.0234 7.60156C74.1953 7.57031 74.3359 7.60938 74.4453 7.71875C74.5703 7.8125 74.6641 7.94531 74.7266 8.11719C74.7891 8.27344 74.8203 8.45312 74.8203 8.65625C74.8359 8.85938 74.8203 9.03906 74.7734 9.19531ZM71.5391 14.1875C71.6172 14.0938 71.7656 14.0156 71.9844 13.9531C72.2031 13.8906 72.4297 13.8438 72.6641 13.8125C72.8984 13.7656 73.1094 13.7422 73.2969 13.7422C73.5 13.7266 73.6172 13.7266 73.6484 13.7422C73.6641 13.7578 73.625 13.9219 73.5312 14.2344C73.4375 14.5469 73.3203 14.9141 73.1797 15.3359C73.0391 15.7578 72.8906 16.1953 72.7344 16.6484C72.5781 17.0859 72.4609 17.4453 72.3828 17.7266C72.3047 18.0078 72.2109 18.3281 72.1016 18.6875C71.9922 19.0312 71.8906 19.375 71.7969 19.7188C71.7188 20.0469 71.6641 20.3594 71.6328 20.6562C71.6016 20.9531 71.625 21.1797 71.7031 21.3359C71.7812 21.5234 71.8672 21.6562 71.9609 21.7344C72.0547 21.7969 72.1562 21.8281 72.2656 21.8281C72.5781 21.8281 72.9688 21.6562 73.4375 21.3125C73.9219 20.9688 74.4062 20.5625 74.8906 20.0938C75.3906 19.6094 75.8516 19.125 76.2734 18.6406C76.6953 18.1406 77.0078 17.7422 77.2109 17.4453C77.3359 17.2891 77.4609 17.1875 77.5859 17.1406C77.7266 17.0938 77.8359 17.1016 77.9141 17.1641C78.0078 17.2266 78.0547 17.3281 78.0547 17.4688C78.0703 17.6094 78.0234 17.7734 77.9141 17.9609C77.6641 18.3984 77.2969 18.9219 76.8125 19.5312C76.3281 20.125 75.8125 20.7031 75.2656 21.2656C74.7188 21.8125 74.1797 22.2812 73.6484 22.6719C73.1328 23.0625 72.7109 23.2656 72.3828 23.2812C72.1172 23.2969 71.8516 23.25 71.5859 23.1406C71.3359 23.0469 71.1016 22.9141 70.8828 22.7422C70.6797 22.5547 70.5078 22.3438 70.3672 22.1094C70.2266 21.8594 70.1484 21.6016 70.1328 21.3359C70.0859 20.9453 70.0859 20.4141 70.1328 19.7422C70.1797 19.0547 70.2656 18.3594 70.3906 17.6562C70.5156 16.9375 70.6719 16.2578 70.8594 15.6172C71.0625 14.9766 71.2891 14.5 71.5391 14.1875ZM86.8203 18.125C86.3516 18.8125 85.8203 19.4844 85.2266 20.1406C84.6328 20.7812 84 21.3594 83.3281 21.875C82.6719 22.375 81.9922 22.7812 81.2891 23.0938C80.6016 23.4062 79.9297 23.5625 79.2734 23.5625C78.9297 23.5625 78.5547 23.4766 78.1484 23.3047C77.7578 23.1484 77.3984 22.8984 77.0703 22.5547C76.7422 22.2109 76.4766 21.7656 76.2734 21.2188C76.0859 20.6719 76.0312 20.0078 76.1094 19.2266C76.1719 18.5859 76.3672 17.9141 76.6953 17.2109C77.0391 16.4922 77.4531 15.8359 77.9375 15.2422C78.4375 14.6484 78.9922 14.1562 79.6016 13.7656C80.2266 13.375 80.8516 13.1797 81.4766 13.1797C82.0703 13.1797 82.5 13.3281 82.7656 13.625C83.0312 13.9219 83.1484 14.2891 83.1172 14.7266C83.0703 15.2109 82.9297 15.6562 82.6953 16.0625C82.4766 16.4688 82.2109 16.8359 81.8984 17.1641C81.5859 17.4922 81.25 17.7891 80.8906 18.0547C80.5469 18.3203 80.2188 18.5625 79.9062 18.7812C79.5625 19.0156 79.2344 19.2422 78.9219 19.4609C78.6094 19.6641 78.3359 19.8516 78.1016 20.0234C78.1172 20.4141 78.1875 20.7422 78.3125 21.0078C78.4375 21.2734 78.5938 21.4922 78.7812 21.6641C78.9688 21.8203 79.1797 21.9375 79.4141 22.0156C79.6641 22.0781 79.9141 22.1094 80.1641 22.1094C80.6953 22.1094 81.25 21.9453 81.8281 21.6172C82.4062 21.2734 82.9688 20.8672 83.5156 20.3984C84.0781 19.9141 84.5938 19.4141 85.0625 18.8984C85.5469 18.3828 85.9453 17.9375 86.2578 17.5625C86.3672 17.4375 86.4766 17.3672 86.5859 17.3516C86.7109 17.3203 86.8047 17.3359 86.8672 17.3984C86.9453 17.4453 86.9844 17.5391 86.9844 17.6797C86.9844 17.8047 86.9297 17.9531 86.8203 18.125ZM80.8203 14.5156C80.6328 14.5156 80.4062 14.6094 80.1406 14.7969C79.8906 14.9844 79.6406 15.2578 79.3906 15.6172C79.1406 15.9609 78.9062 16.3906 78.6875 16.9062C78.4688 17.4062 78.3047 17.9844 78.1953 18.6406C78.3828 18.5 78.5859 18.3594 78.8047 18.2188C79.0234 18.0625 79.2422 17.8984 79.4609 17.7266C80.1328 17.2109 80.6016 16.7578 80.8672 16.3672C81.1328 15.9766 81.2812 15.6406 81.3125 15.3594C81.3438 15.0625 81.3125 14.8516 81.2188 14.7266C81.125 14.5859 80.9922 14.5156 80.8203 14.5156ZM84.7812 22.625C85.4688 19.7344 86.0156 17.4141 86.4219 15.6641C86.8438 13.9141 87.1641 12.5781 87.3828 11.6562C87.6328 10.5625 87.8047 9.80469 87.8984 9.38281C87.9453 9.08594 87.9844 8.79688 88.0156 8.51562C88.0469 8.26562 88.0625 8.00781 88.0625 7.74219C88.0625 7.47656 88.0391 7.23438 87.9922 7.01562C88.1172 6.9375 88.25 6.875 88.3906 6.82812C88.5469 6.78125 88.6953 6.74219 88.8359 6.71094C89.0078 6.66406 89.1797 6.625 89.3516 6.59375C89.5234 6.5625 89.6797 6.54688 89.8203 6.54688C89.9453 6.54688 90.0625 6.5625 90.1719 6.59375C90.2812 6.60937 90.3516 6.65625 90.3828 6.73438C90.4766 6.8125 90.5156 6.96875 90.5 7.20312C90.5 7.4375 90.4844 7.67969 90.4531 7.92969C90.3906 8.22656 90.3203 8.54688 90.2422 8.89062C90.0547 9.5625 89.7969 10.5312 89.4688 11.7969C89.1875 12.875 88.8047 14.3438 88.3203 16.2031C87.8516 18.0625 87.2578 20.4062 86.5391 23.2344C86.4609 23.3125 86.3672 23.3672 86.2578 23.3984C86.1484 23.4297 86.0469 23.4453 85.9531 23.4453C85.8438 23.4453 85.7266 23.4375 85.6016 23.4219C85.4922 23.3906 85.3828 23.3438 85.2734 23.2812C85.1797 23.2188 85.0859 23.1328 84.9922 23.0234C84.8984 22.9297 84.8281 22.7969 84.7812 22.625ZM101 18.125C100.531 18.8125 100 19.4844 99.4062 20.1406C98.8125 20.7812 98.1797 21.3594 97.5078 21.875C96.8516 22.375 96.1719 22.7812 95.4688 23.0938C94.7812 23.4062 94.1094 23.5625 93.4531 23.5625C93.1094 23.5625 92.7344 23.4766 92.3281 23.3047C91.9375 23.1484 91.5781 22.8984 91.25 22.5547C90.9219 22.2109 90.6562 21.7656 90.4531 21.2188C90.2656 20.6719 90.2109 20.0078 90.2891 19.2266C90.3516 18.5859 90.5469 17.9141 90.875 17.2109C91.2188 16.4922 91.6328 15.8359 92.1172 15.2422C92.6172 14.6484 93.1719 14.1562 93.7812 13.7656C94.4062 13.375 95.0312 13.1797 95.6562 13.1797C96.25 13.1797 96.6797 13.3281 96.9453 13.625C97.2109 13.9219 97.3281 14.2891 97.2969 14.7266C97.25 15.2109 97.1094 15.6562 96.875 16.0625C96.6562 16.4688 96.3906 16.8359 96.0781 17.1641C95.7656 17.4922 95.4297 17.7891 95.0703 18.0547C94.7266 18.3203 94.3984 18.5625 94.0859 18.7812C93.7422 19.0156 93.4141 19.2422 93.1016 19.4609C92.7891 19.6641 92.5156 19.8516 92.2812 20.0234C92.2969 20.4141 92.3672 20.7422 92.4922 21.0078C92.6172 21.2734 92.7734 21.4922 92.9609 21.6641C93.1484 21.8203 93.3594 21.9375 93.5938 22.0156C93.8438 22.0781 94.0938 22.1094 94.3438 22.1094C94.875 22.1094 95.4297 21.9453 96.0078 21.6172C96.5859 21.2734 97.1484 20.8672 97.6953 20.3984C98.2578 19.9141 98.7734 19.4141 99.2422 18.8984C99.7266 18.3828 100.125 17.9375 100.438 17.5625C100.547 17.4375 100.656 17.3672 100.766 17.3516C100.891 17.3203 100.984 17.3359 101.047 17.3984C101.125 17.4453 101.164 17.5391 101.164 17.6797C101.164 17.8047 101.109 17.9531 101 18.125ZM95 14.5156C94.8125 14.5156 94.5859 14.6094 94.3203 14.7969C94.0703 14.9844 93.8203 15.2578 93.5703 15.6172C93.3203 15.9609 93.0859 16.3906 92.8672 16.9062C92.6484 17.4062 92.4844 17.9844 92.375 18.6406C92.5625 18.5 92.7656 18.3594 92.9844 18.2188C93.2031 18.0625 93.4219 17.8984 93.6406 17.7266C94.3125 17.2109 94.7812 16.7578 95.0469 16.3672C95.3125 15.9766 95.4609 15.6406 95.4922 15.3594C95.5234 15.0625 95.4922 14.8516 95.3984 14.7266C95.3047 14.5859 95.1719 14.5156 95 14.5156ZM109.906 15.0312C109.109 15.0312 108.461 14.9453 107.961 14.7734C107.477 14.6016 107.148 14.3828 106.977 14.1172C106.898 14.0078 106.828 13.8438 106.766 13.625C106.703 13.4062 106.727 13.1641 106.836 12.8984C107.055 13.0703 107.289 13.2031 107.539 13.2969C107.805 13.375 108.047 13.4297 108.266 13.4609C108.531 13.5078 108.789 13.5312 109.039 13.5312C109.508 13.5312 109.961 13.4922 110.398 13.4141C110.852 13.3359 111.297 13.2266 111.734 13.0859C111.922 12.1484 112.102 11.3047 112.273 10.5547C112.461 9.80469 112.672 9.19531 112.906 8.72656C113.156 8.21094 113.414 7.75 113.68 7.34375C113.961 6.92188 114.266 6.57031 114.594 6.28906C114.938 5.99219 115.312 5.76562 115.719 5.60938C116.125 5.45313 116.594 5.375 117.125 5.375C117.516 5.375 117.82 5.45313 118.039 5.60938C118.273 5.76562 118.445 5.96094 118.555 6.19531C118.68 6.42969 118.75 6.6875 118.766 6.96875C118.797 7.23438 118.812 7.48438 118.812 7.71875C118.812 8.23438 118.688 8.79688 118.438 9.40625C118.188 10.0156 117.836 10.6172 117.383 11.2109C116.93 11.8047 116.383 12.3672 115.742 12.8984C115.117 13.4297 114.414 13.8672 113.633 14.2109C113.367 15.2422 113.102 16.2656 112.836 17.2812C112.586 18.2812 112.336 19.1094 112.086 19.7656C111.867 20.375 111.586 21.0547 111.242 21.8047C110.914 22.5547 110.508 23.2734 110.023 23.9609C110.32 24.1484 110.617 24.3438 110.914 24.5469C111.227 24.75 111.539 24.9297 111.852 25.0859C112.164 25.2578 112.477 25.3984 112.789 25.5078C113.117 25.6172 113.461 25.6719 113.82 25.6719C114.195 25.6562 114.562 25.6016 114.922 25.5078C115.234 25.4297 115.562 25.2969 115.906 25.1094C116.25 24.9375 116.57 24.6875 116.867 24.3594C116.977 24.5469 117.008 24.8281 116.961 25.2031C116.93 25.5781 116.812 25.9531 116.609 26.3281C116.406 26.7031 116.117 27.0312 115.742 27.3125C115.367 27.5938 114.898 27.7344 114.336 27.7344C113.742 27.7344 113.188 27.6484 112.672 27.4766C112.156 27.3203 111.672 27.125 111.219 26.8906C110.766 26.6562 110.336 26.3984 109.93 26.1172C109.539 25.8516 109.172 25.6016 108.828 25.3672C108.359 25.8203 107.844 26.1875 107.281 26.4688C106.719 26.75 106.094 26.8906 105.406 26.8906C104.859 26.8906 104.422 26.7344 104.094 26.4219C103.766 26.125 103.617 25.7188 103.648 25.2031C103.664 25.0156 103.719 24.7891 103.812 24.5234C103.906 24.2734 104.086 24.0312 104.352 23.7969C104.602 23.5625 104.953 23.3594 105.406 23.1875C105.859 23.0312 106.445 22.9531 107.164 22.9531C107.43 22.9531 107.68 22.9766 107.914 23.0234C108.164 23.0859 108.406 23.1562 108.641 23.2344C108.812 22.9219 108.984 22.5625 109.156 22.1562C109.328 21.75 109.516 21.2891 109.719 20.7734C110.078 19.7891 110.391 18.8047 110.656 17.8203C110.922 16.8203 111.148 15.8516 111.336 14.9141C111.117 14.9609 110.883 14.9922 110.633 15.0078C110.398 15.0234 110.156 15.0312 109.906 15.0312ZM106.016 25.625C106.219 25.5469 106.453 25.4688 106.719 25.3906C106.984 25.3125 107.289 25.0938 107.633 24.7344C107.398 24.6562 107.219 24.6172 107.094 24.6172C106.531 24.6172 106.125 24.6953 105.875 24.8516C105.609 25.0234 105.477 25.1875 105.477 25.3438C105.477 25.4531 105.523 25.5312 105.617 25.5781C105.711 25.6406 105.844 25.6562 106.016 25.625ZM114.875 9.3125C114.797 9.54688 114.695 9.89062 114.57 10.3438C114.445 10.7969 114.312 11.3203 114.172 11.9141C115.016 11.3672 115.688 10.7422 116.188 10.0391C116.703 9.33594 116.961 8.63281 116.961 7.92969C116.961 7.50781 116.836 7.29688 116.586 7.29688C116.367 7.29688 116.086 7.46875 115.742 7.8125C115.398 8.14062 115.109 8.64062 114.875 9.3125ZM120.758 23.375C120.164 23.375 119.68 23.2812 119.305 23.0938C118.93 22.9062 118.633 22.6797 118.414 22.4141C118.211 22.1328 118.062 21.8359 117.969 21.5234C117.891 21.1953 117.852 20.8984 117.852 20.6328C117.852 20.1641 117.891 19.6719 117.969 19.1562C118.047 18.625 118.141 18.1406 118.25 17.7031C118.359 17.25 118.453 16.8672 118.531 16.5547C118.625 16.2422 118.688 16.0469 118.719 15.9688C118.859 15.5156 119.039 15.125 119.258 14.7969C119.492 14.4531 119.812 14.2188 120.219 14.0938C120.375 14.0625 120.539 14.0312 120.711 14C120.852 13.9844 120.992 13.9766 121.133 13.9766C121.289 13.9766 121.43 14 121.555 14.0469C121.133 15.125 120.797 16.0234 120.547 16.7422C120.312 17.4609 120.133 18.0469 120.008 18.5C119.867 19.0156 119.781 19.4297 119.75 19.7422C119.672 20.4453 119.734 20.9766 119.938 21.3359C120.141 21.6953 120.555 21.875 121.18 21.875C121.586 21.875 121.977 21.7266 122.352 21.4297C122.727 21.1172 123.07 20.7188 123.383 20.2344C123.336 19.9844 123.312 19.7266 123.312 19.4609C123.312 18.9609 123.352 18.4766 123.43 18.0078C123.523 17.5234 123.625 17.0781 123.734 16.6719C123.859 16.25 123.984 15.875 124.109 15.5469C124.25 15.2188 124.367 14.9609 124.461 14.7734C124.633 14.3984 124.789 14.1719 124.93 14.0938C125.07 14 125.297 13.9453 125.609 13.9297C125.734 13.9141 125.836 13.9141 125.914 13.9297C126.008 13.9297 126.086 13.9375 126.148 13.9531C126.336 14 126.43 14.0938 126.43 14.2344C126.43 14.4844 126.414 14.8594 126.383 15.3594C126.352 15.8594 126.258 16.375 126.102 16.9062C125.992 17.3438 125.883 17.7188 125.773 18.0312C125.68 18.3281 125.586 18.5859 125.492 18.8047C125.398 19.0078 125.305 19.1797 125.211 19.3203C125.117 19.4453 125.031 19.5625 124.953 19.6719C124.984 20.1406 125.023 20.5156 125.07 20.7969C125.117 21.0781 125.172 21.2969 125.234 21.4531C125.312 21.5938 125.398 21.6953 125.492 21.7578C125.602 21.8047 125.719 21.8281 125.844 21.8281C126.062 21.8281 126.32 21.7266 126.617 21.5234C126.914 21.3047 127.219 21.0391 127.531 20.7266C127.859 20.3984 128.18 20.0469 128.492 19.6719C128.82 19.2812 129.117 18.9141 129.383 18.5703C129.648 18.2266 129.875 17.9297 130.062 17.6797C130.25 17.4141 130.367 17.25 130.414 17.1875C130.523 17.0469 130.625 16.9609 130.719 16.9297C130.828 16.8984 130.914 16.9141 130.977 16.9766C131.039 17.0234 131.07 17.1094 131.07 17.2344C131.086 17.3438 131.055 17.4688 130.977 17.6094C130.664 18.2031 130.273 18.8359 129.805 19.5078C129.352 20.1641 128.859 20.7734 128.328 21.3359C127.812 21.8984 127.289 22.3672 126.758 22.7422C126.227 23.1172 125.727 23.3047 125.258 23.3047C124.836 23.3047 124.5 23.1641 124.25 22.8828C124.016 22.5859 123.812 22.1641 123.641 21.6172C123.281 22.1797 122.859 22.6172 122.375 22.9297C121.891 23.2266 121.352 23.375 120.758 23.375ZM136.555 18.5234C136.477 19.0078 136.398 19.4688 136.32 19.9062C136.258 20.3438 136.219 20.6953 136.203 20.9609C136.188 21.3516 136.258 21.6328 136.414 21.8047C136.57 21.9766 136.742 22.0625 136.93 22.0625C137.148 22.0625 137.414 21.9531 137.727 21.7344C138.055 21.5156 138.398 21.2422 138.758 20.9141C139.117 20.5859 139.477 20.2266 139.836 19.8359C140.195 19.4453 140.523 19.0781 140.82 18.7344C141.133 18.375 141.391 18.0625 141.594 17.7969C141.812 17.5312 141.961 17.3594 142.039 17.2812C142.133 17.1875 142.227 17.1328 142.32 17.1172C142.43 17.1016 142.516 17.1172 142.578 17.1641C142.641 17.2109 142.672 17.2969 142.672 17.4219C142.672 17.5469 142.609 17.7031 142.484 17.8906C142.297 18.1875 142.055 18.5391 141.758 18.9453C141.461 19.3359 141.133 19.7422 140.773 20.1641C140.414 20.5859 140.031 21 139.625 21.4062C139.234 21.8125 138.836 22.1719 138.43 22.4844C138.039 22.7969 137.656 23.0469 137.281 23.2344C136.922 23.4375 136.594 23.5391 136.297 23.5391C136.078 23.5391 135.867 23.4766 135.664 23.3516C135.477 23.2266 135.305 23.0625 135.148 22.8594C134.992 22.6562 134.867 22.4297 134.773 22.1797C134.695 21.9297 134.664 21.6797 134.68 21.4297C134.695 21.3203 134.719 21.1328 134.75 20.8672C134.094 21.6016 133.43 22.1875 132.758 22.625C132.102 23.0469 131.469 23.2578 130.859 23.2578C130.641 23.2578 130.406 23.2031 130.156 23.0938C129.906 22.9844 129.68 22.8047 129.477 22.5547C129.289 22.3047 129.133 21.9766 129.008 21.5703C128.883 21.1641 128.836 20.6719 128.867 20.0938C128.914 19.1875 129.094 18.3281 129.406 17.5156C129.719 16.7031 130.109 16 130.578 15.4062C131.062 14.7969 131.602 14.3203 132.195 13.9766C132.805 13.6172 133.414 13.4375 134.023 13.4375C134.289 13.4375 134.531 13.5078 134.75 13.6484C134.969 13.7734 135.156 13.9453 135.312 14.1641C135.469 14.3672 135.594 14.5938 135.688 14.8438C135.797 15.0938 135.875 15.3281 135.922 15.5469C136.031 15.0938 136.133 14.6484 136.227 14.2109C136.32 13.7734 136.414 13.3594 136.508 12.9688C136.664 12.3906 136.828 11.7656 137 11.0938C137.156 10.5156 137.336 9.85156 137.539 9.10156C137.742 8.35156 137.969 7.5625 138.219 6.73438C138.375 6.60937 138.523 6.51562 138.664 6.45312C138.805 6.39063 138.938 6.34375 139.062 6.3125C139.203 6.26562 139.336 6.24219 139.461 6.24219C139.617 6.24219 139.758 6.26562 139.883 6.3125C140.008 6.34375 140.109 6.44531 140.188 6.61719C140.281 6.77344 140.344 7.01562 140.375 7.34375C140.406 7.67188 140.406 8.11719 140.375 8.67969C140.344 9.36719 140.219 10.1172 140 10.9297C139.797 11.7422 139.523 12.5859 139.18 13.4609C138.836 14.3203 138.438 15.1875 137.984 16.0625C137.547 16.9219 137.07 17.7422 136.555 18.5234ZM135.172 18.8281C135.234 18.5312 135.289 18.2344 135.336 17.9375C135.398 17.6406 135.469 17.3359 135.547 17.0234C135.516 17.0391 135.484 17.0547 135.453 17.0703C135.438 17.0859 135.414 17.1016 135.383 17.1172C135.211 17.1953 135.094 17.1953 135.031 17.1172C134.969 17.0234 134.938 16.8828 134.938 16.6953C134.938 16.6016 134.93 16.4375 134.914 16.2031C134.898 15.9531 134.852 15.7031 134.773 15.4531C134.711 15.1875 134.609 14.9609 134.469 14.7734C134.328 14.5703 134.133 14.4688 133.883 14.4688C133.523 14.4688 133.156 14.6562 132.781 15.0312C132.406 15.3906 132.055 15.8359 131.727 16.3672C131.398 16.8828 131.125 17.4375 130.906 18.0312C130.688 18.625 130.562 19.1562 130.531 19.625C130.5 20.375 130.594 20.9141 130.812 21.2422C131.031 21.5703 131.328 21.7344 131.703 21.7344C131.984 21.7344 132.289 21.625 132.617 21.4062C132.961 21.1875 133.289 20.9219 133.602 20.6094C133.93 20.2969 134.227 19.9766 134.492 19.6484C134.773 19.3203 135 19.0469 135.172 18.8281ZM152.914 18.9453C152.695 19.5078 152.445 20.0547 152.164 20.5859C151.883 21.1172 151.57 21.5938 151.227 22.0156C150.883 22.4375 150.516 22.7734 150.125 23.0234C149.734 23.2734 149.312 23.3984 148.859 23.3984C148.125 23.3984 147.57 23.1562 147.195 22.6719C146.82 22.1719 146.562 21.5625 146.422 20.8438C146.203 21.1719 145.969 21.5 145.719 21.8281C145.469 22.1562 145.203 22.4453 144.922 22.6953C144.641 22.9453 144.352 23.1484 144.055 23.3047C143.758 23.4609 143.461 23.5391 143.164 23.5391C142.758 23.5391 142.414 23.4531 142.133 23.2812C141.852 23.1094 141.617 22.875 141.43 22.5781C141.258 22.2656 141.133 21.9141 141.055 21.5234C140.977 21.1172 140.938 20.6875 140.938 20.2344V19.9531C140.938 19.375 140.984 18.7812 141.078 18.1719C141.172 17.5625 141.273 17 141.383 16.4844C141.508 15.9688 141.633 15.5234 141.758 15.1484C141.883 14.7578 141.977 14.5 142.039 14.375C142.148 14.2188 142.383 14.0703 142.742 13.9297C143.117 13.7734 143.484 13.7109 143.844 13.7422C144.016 13.7578 144.102 13.8281 144.102 13.9531C144.117 14.0781 144.102 14.2344 144.055 14.4219C143.992 14.6875 143.883 15.0859 143.727 15.6172C143.57 16.1484 143.406 16.7266 143.234 17.3516C143.078 17.9766 142.938 18.5938 142.812 19.2031C142.688 19.8125 142.625 20.3203 142.625 20.7266C142.625 21.2266 142.703 21.5859 142.859 21.8047C143.016 22.0234 143.258 22.1328 143.586 22.1328C143.977 22.1328 144.406 21.9141 144.875 21.4766C145.359 21.0391 145.828 20.2969 146.281 19.25C146.266 19.1562 146.258 19.0625 146.258 18.9688C146.258 18.875 146.258 18.7734 146.258 18.6641C146.258 17.9609 146.281 17.2891 146.328 16.6484C146.391 16.0078 146.5 15.4453 146.656 14.9609C146.828 14.4766 147.055 14.0938 147.336 13.8125C147.633 13.5312 148.016 13.3906 148.484 13.3906C148.672 13.3906 148.828 13.4453 148.953 13.5547C149.078 13.6641 149.141 13.8203 149.141 14.0234C149.141 14.5234 148.961 15.2344 148.602 16.1562C148.258 17.0625 147.844 18.0625 147.359 19.1562C147.312 19.2188 147.281 19.2812 147.266 19.3438C147.312 19.6406 147.367 19.9531 147.43 20.2812C147.508 20.6094 147.609 20.9141 147.734 21.1953C147.859 21.4609 148.008 21.6875 148.18 21.875C148.352 22.0469 148.555 22.1328 148.789 22.1328C149.133 22.1328 149.445 21.9688 149.727 21.6406C150.023 21.3125 150.281 20.9141 150.5 20.4453C150.734 19.9766 150.938 19.4844 151.109 18.9688C151.281 18.4375 151.414 17.9688 151.508 17.5625C151.461 17.3906 151.422 17.2266 151.391 17.0703C151.359 16.8984 151.344 16.7031 151.344 16.4844C151.344 16 151.414 15.5859 151.555 15.2422C151.695 14.8984 151.875 14.6172 152.094 14.3984C152.328 14.1641 152.57 13.9922 152.82 13.8828C153.086 13.7734 153.328 13.7188 153.547 13.7188C153.938 13.7188 154.133 13.8906 154.133 14.2344C154.133 14.4844 154.07 14.9219 153.945 15.5469C153.82 16.1562 153.641 16.8516 153.406 17.6328C153.688 17.7578 154.047 17.8203 154.484 17.8203C154.891 17.8203 155.266 17.7734 155.609 17.6797C155.953 17.5703 156.266 17.4375 156.547 17.2812C156.828 17.125 157.086 16.9531 157.32 16.7656C157.555 16.5781 157.781 16.3984 158 16.2266C158.172 16.1016 158.312 16.0938 158.422 16.2031C158.531 16.3125 158.516 16.4844 158.375 16.7188C158.25 16.9219 158.031 17.1562 157.719 17.4219C157.422 17.6875 157.055 17.9453 156.617 18.1953C156.195 18.4297 155.719 18.6328 155.188 18.8047C154.672 18.9609 154.125 19.0391 153.547 19.0391C153.453 19.0391 153.352 19.0312 153.242 19.0156C153.133 19 153.023 18.9766 152.914 18.9453ZM161.375 9.19531C161.328 9.36719 161.234 9.53906 161.094 9.71094C160.969 9.86719 160.82 10 160.648 10.1094C160.492 10.2031 160.328 10.2656 160.156 10.2969C159.984 10.3281 159.844 10.2969 159.734 10.2031C159.406 9.95312 159.234 9.6875 159.219 9.40625C159.203 9.10938 159.273 8.83594 159.43 8.58594C159.586 8.32031 159.781 8.10156 160.016 7.92969C160.25 7.74219 160.453 7.63281 160.625 7.60156C160.797 7.57031 160.938 7.60938 161.047 7.71875C161.172 7.8125 161.266 7.94531 161.328 8.11719C161.391 8.27344 161.422 8.45312 161.422 8.65625C161.438 8.85938 161.422 9.03906 161.375 9.19531ZM158.141 14.1875C158.219 14.0938 158.367 14.0156 158.586 13.9531C158.805 13.8906 159.031 13.8438 159.266 13.8125C159.5 13.7656 159.711 13.7422 159.898 13.7422C160.102 13.7266 160.219 13.7266 160.25 13.7422C160.266 13.7578 160.227 13.9219 160.133 14.2344C160.039 14.5469 159.922 14.9141 159.781 15.3359C159.641 15.7578 159.492 16.1953 159.336 16.6484C159.18 17.0859 159.062 17.4453 158.984 17.7266C158.906 18.0078 158.812 18.3281 158.703 18.6875C158.594 19.0312 158.492 19.375 158.398 19.7188C158.32 20.0469 158.266 20.3594 158.234 20.6562C158.203 20.9531 158.227 21.1797 158.305 21.3359C158.383 21.5234 158.469 21.6562 158.562 21.7344C158.656 21.7969 158.758 21.8281 158.867 21.8281C159.18 21.8281 159.57 21.6562 160.039 21.3125C160.523 20.9688 161.008 20.5625 161.492 20.0938C161.992 19.6094 162.453 19.125 162.875 18.6406C163.297 18.1406 163.609 17.7422 163.812 17.4453C163.938 17.2891 164.062 17.1875 164.188 17.1406C164.328 17.0938 164.438 17.1016 164.516 17.1641C164.609 17.2266 164.656 17.3281 164.656 17.4688C164.672 17.6094 164.625 17.7734 164.516 17.9609C164.266 18.3984 163.898 18.9219 163.414 19.5312C162.93 20.125 162.414 20.7031 161.867 21.2656C161.32 21.8125 160.781 22.2812 160.25 22.6719C159.734 23.0625 159.312 23.2656 158.984 23.2812C158.719 23.2969 158.453 23.25 158.188 23.1406C157.938 23.0469 157.703 22.9141 157.484 22.7422C157.281 22.5547 157.109 22.3438 156.969 22.1094C156.828 21.8594 156.75 21.6016 156.734 21.3359C156.688 20.9453 156.688 20.4141 156.734 19.7422C156.781 19.0547 156.867 18.3594 156.992 17.6562C157.117 16.9375 157.273 16.2578 157.461 15.6172C157.664 14.9766 157.891 14.5 158.141 14.1875ZM168.992 26.3516C168.914 26.7266 168.812 27.1953 168.688 27.7578C168.578 28.3203 168.445 28.9141 168.289 29.5391C168.148 30.1641 167.977 30.7812 167.773 31.3906C167.586 32.0156 167.375 32.5703 167.141 33.0547C166.906 33.5547 166.648 33.9609 166.367 34.2734C166.086 34.5859 165.773 34.7422 165.43 34.7422C164.914 34.7422 164.469 34.5859 164.094 34.2734C163.734 33.9766 163.43 33.5938 163.18 33.125C162.93 32.6719 162.75 32.1797 162.641 31.6484C162.516 31.1172 162.453 30.625 162.453 30.1719C162.453 29.5469 162.508 29.0234 162.617 28.6016C162.727 28.1953 162.914 27.8047 163.18 27.4297C163.461 27.0547 163.836 26.6562 164.305 26.2344C164.773 25.8125 165.375 25.2891 166.109 24.6641C166.469 24.3516 166.812 24.0547 167.141 23.7734C167.469 23.4922 167.781 23.2344 168.078 23C168.156 22.6875 168.227 22.3984 168.289 22.1328C168.367 21.8516 168.43 21.6016 168.477 21.3828C168.07 21.9297 167.578 22.3906 167 22.7656C166.438 23.1406 165.789 23.3281 165.055 23.3281C164.383 23.3281 163.836 23.0312 163.414 22.4375C163.008 21.8281 162.805 20.9375 162.805 19.7656C162.805 19.1875 162.914 18.5234 163.133 17.7734C163.352 17.0234 163.664 16.3203 164.07 15.6641C164.477 15.0078 164.977 14.4531 165.57 14C166.164 13.5469 166.828 13.3203 167.562 13.3203C167.906 13.3203 168.203 13.4062 168.453 13.5781C168.703 13.75 168.914 13.9688 169.086 14.2344C169.258 14.4844 169.391 14.7578 169.484 15.0547C169.578 15.3359 169.648 15.6016 169.695 15.8516C169.727 15.7578 169.75 15.6641 169.766 15.5703C169.781 15.4609 169.805 15.3672 169.836 15.2891C169.992 14.7578 170.164 14.3984 170.352 14.2109C170.555 14.0078 170.852 13.9062 171.242 13.9062C171.461 13.9062 171.641 13.9453 171.781 14.0234C171.938 14.1016 172.016 14.1719 172.016 14.2344C171.938 14.4062 171.875 14.5391 171.828 14.6328C171.781 14.7266 171.734 14.8281 171.688 14.9375C171.641 15.0312 171.594 15.1562 171.547 15.3125C171.5 15.4688 171.438 15.6953 171.359 15.9922C171.328 16.1016 171.266 16.3594 171.172 16.7656C171.094 17.1562 170.984 17.625 170.844 18.1719C170.719 18.7188 170.578 19.3203 170.422 19.9766C170.281 20.6328 170.141 21.2734 170 21.8984C170.438 21.6484 170.891 21.3438 171.359 20.9844C171.828 20.625 172.273 20.2578 172.695 19.8828C173.117 19.5078 173.492 19.1562 173.82 18.8281C174.148 18.4844 174.391 18.2031 174.547 17.9844C174.672 17.7969 174.812 17.6641 174.969 17.5859C175.125 17.5078 175.258 17.4844 175.367 17.5156C175.492 17.5312 175.562 17.6016 175.578 17.7266C175.609 17.8359 175.562 17.9922 175.438 18.1953C175.078 18.7734 174.641 19.3359 174.125 19.8828C173.609 20.4141 173.078 20.9141 172.531 21.3828C172 21.8359 171.477 22.2422 170.961 22.6016C170.461 22.9453 170.031 23.2266 169.672 23.4453C169.516 24.1484 169.383 24.7188 169.273 25.1562C169.164 25.5938 169.07 25.9922 168.992 26.3516ZM166.039 21.7344C166.367 21.7344 166.672 21.6484 166.953 21.4766C167.25 21.3047 167.516 21.1094 167.75 20.8906C167.984 20.6562 168.18 20.4219 168.336 20.1875C168.492 19.9531 168.609 19.7656 168.688 19.625C168.75 19.4844 168.82 19.2969 168.898 19.0625C168.992 18.8281 169.062 18.6016 169.109 18.3828C169.156 18.1641 169.172 17.9688 169.156 17.7969C169.156 17.625 169.102 17.5312 168.992 17.5156C168.898 17.5 168.82 17.4375 168.758 17.3281C168.711 17.2188 168.672 17.0938 168.641 16.9531C168.609 16.8125 168.586 16.6719 168.57 16.5312C168.57 16.3906 168.562 16.2656 168.547 16.1562C168.469 15.6094 168.336 15.2109 168.148 14.9609C167.961 14.7109 167.75 14.5859 167.516 14.5859C167.125 14.5859 166.75 14.7422 166.391 15.0547C166.047 15.3672 165.734 15.7734 165.453 16.2734C165.188 16.7578 164.977 17.2969 164.82 17.8906C164.664 18.4688 164.586 19.0234 164.586 19.5547C164.586 20.2109 164.68 20.7422 164.867 21.1484C165.055 21.5391 165.445 21.7344 166.039 21.7344ZM164.961 32.6094C165.273 32.6094 165.523 32.375 165.711 31.9062C165.914 31.4531 166.125 30.8281 166.344 30.0312C166.391 29.8438 166.453 29.5703 166.531 29.2109C166.625 28.8672 166.727 28.4688 166.836 28.0156C166.961 27.5625 167.086 27.0703 167.211 26.5391C167.336 26.0234 167.469 25.5 167.609 24.9688C167.484 25.0781 167.352 25.1875 167.211 25.2969C167.086 25.4219 166.953 25.5625 166.812 25.7188C166.469 26.0469 166.133 26.3594 165.805 26.6562C165.492 26.9688 165.211 27.2891 164.961 27.6172C164.711 27.9609 164.508 28.3281 164.352 28.7188C164.211 29.1094 164.141 29.5625 164.141 30.0781C164.141 30.5938 164.156 31.0156 164.188 31.3438C164.234 31.6719 164.289 31.9297 164.352 32.1172C164.43 32.3047 164.516 32.4297 164.609 32.4922C164.719 32.5703 164.836 32.6094 164.961 32.6094Z" fill="white"/>
</g>
<line x1="8" y1="30.5" x2="68" y2="30.5" stroke="white"/>
<line x1="132" y1="30.5" x2="192" y2="30.5" stroke="white"/>
<path d="M74.2832 31.2012C74.2311 31.1361 74.2018 31.0807 74.1953 31.0352C74.1888 30.9896 74.1855 30.931 74.1855 30.8594C74.1855 30.7878 74.1953 30.7292 74.2148 30.6836C74.2409 30.6315 74.2962 30.6055 74.3809 30.6055C74.4329 30.6055 74.4785 30.6185 74.5176 30.6445C74.5566 30.6706 74.5924 30.7064 74.625 30.752C74.6641 30.791 74.6934 30.8333 74.7129 30.8789C74.7324 30.918 74.7487 30.9603 74.7617 31.0059C74.8398 31.2728 74.9082 31.5137 74.9668 31.7285C75.0254 31.9434 75.0742 32.1615 75.1133 32.3828C75.1589 32.5977 75.1979 32.8255 75.2305 33.0664C75.263 33.3008 75.2956 33.5677 75.3281 33.8672L75.4258 34.043C75.4779 34.0299 75.5299 34.0072 75.582 33.9746C75.6341 33.9421 75.6764 33.9062 75.709 33.8672C75.7415 33.8216 75.7904 33.75 75.8555 33.6523C75.9271 33.5482 76.0052 33.4342 76.0898 33.3105C76.181 33.1803 76.2754 33.0469 76.373 32.9102C76.4707 32.7734 76.5618 32.6432 76.6465 32.5195C76.7376 32.3893 76.819 32.2754 76.8906 32.1777C76.9622 32.0801 77.0143 32.0052 77.0469 31.9531C77.099 31.8815 77.1413 31.8327 77.1738 31.8066C77.2064 31.7741 77.2617 31.7578 77.3398 31.7578C77.4049 31.7578 77.4863 31.8099 77.584 31.9141C77.6882 32.0117 77.8021 32.1419 77.9258 32.3047C78.056 32.4609 78.1862 32.6367 78.3164 32.832C78.4466 33.0208 78.5736 33.2031 78.6973 33.3789C78.8275 33.5547 78.9447 33.7142 79.0488 33.8574C79.1595 34.0007 79.2539 34.0951 79.332 34.1406C79.3385 34.1406 79.3451 34.1439 79.3516 34.1504C79.3581 34.1504 79.3646 34.1504 79.3711 34.1504H79.4004C79.4069 34.1504 79.4134 34.1471 79.4199 34.1406L79.5176 34.043L80.5625 30.4395C80.5885 30.3548 80.6081 30.2995 80.6211 30.2734C80.6341 30.2474 80.6732 30.2344 80.7383 30.2344C80.8034 30.2344 80.8522 30.2507 80.8848 30.2832C80.9238 30.3092 80.9564 30.3451 80.9824 30.3906C81.0085 30.4297 81.0247 30.4753 81.0312 30.5273C81.0443 30.5794 81.0508 30.6315 81.0508 30.6836C81.0508 30.7552 81.0345 30.8757 81.002 31.0449C80.9759 31.2077 80.9368 31.3965 80.8848 31.6113C80.8392 31.8262 80.7806 32.0638 80.709 32.3242C80.6439 32.5781 80.569 32.8288 80.4844 33.0762C80.3997 33.3236 80.3118 33.5645 80.2207 33.7988C80.1361 34.0267 80.0482 34.2318 79.957 34.4141C79.8659 34.5964 79.7747 34.7428 79.6836 34.8535C79.5924 34.9577 79.5046 35.0098 79.4199 35.0098C79.4134 35.0098 79.3971 35.0065 79.3711 35C79.3516 35 79.3385 35 79.332 35C79.1367 34.8307 78.9544 34.6549 78.7852 34.4727C78.6224 34.2904 78.4661 34.1048 78.3164 33.916C78.1667 33.7207 78.0169 33.5254 77.8672 33.3301C77.724 33.1348 77.5742 32.9297 77.418 32.7148C77.4115 32.7083 77.3984 32.6921 77.3789 32.666C77.3594 32.64 77.3464 32.627 77.3398 32.627C77.3268 32.627 77.3171 32.6237 77.3105 32.6172C77.2975 32.6172 77.291 32.6172 77.291 32.6172C77.291 32.6107 77.2878 32.6074 77.2812 32.6074C77.1966 32.6074 77.1022 32.6693 76.998 32.793C76.9004 32.9102 76.7962 33.0566 76.6855 33.2324C76.5749 33.4082 76.4544 33.6003 76.3242 33.8086C76.2005 34.0169 76.0736 34.209 75.9434 34.3848C75.8132 34.554 75.6797 34.7005 75.543 34.8242C75.4128 34.9414 75.276 35 75.1328 35C75.1328 35 75.123 34.9935 75.1035 34.9805C75.084 34.9674 75.0645 34.9512 75.0449 34.9316C75.0319 34.9056 75.0156 34.8828 74.9961 34.8633C74.9766 34.8372 74.9635 34.8177 74.957 34.8047C74.9505 34.7982 74.9473 34.7852 74.9473 34.7656C74.9473 34.7396 74.9505 34.7233 74.957 34.7168L74.2832 31.2012ZM81.3145 33.2812C81.3145 33.0599 81.3763 32.8451 81.5 32.6367C81.6237 32.4284 81.7799 32.2461 81.9688 32.0898C82.1641 31.9336 82.3757 31.8099 82.6035 31.7188C82.8379 31.6276 83.0592 31.582 83.2676 31.582C83.4368 31.582 83.6029 31.6048 83.7656 31.6504C83.9349 31.6895 84.0846 31.7546 84.2148 31.8457C84.3451 31.9368 84.4492 32.0508 84.5273 32.1875C84.612 32.3177 84.6543 32.474 84.6543 32.6562C84.6543 32.7409 84.6478 32.8092 84.6348 32.8613C84.6283 32.9069 84.6087 32.9492 84.5762 32.9883C84.5436 33.0208 84.5013 33.0534 84.4492 33.0859C84.4036 33.112 84.3451 33.1478 84.2734 33.1934C84.2344 33.1999 84.1758 33.2161 84.0977 33.2422C84.0195 33.2617 83.9284 33.2845 83.8242 33.3105C83.7266 33.3366 83.6224 33.3626 83.5117 33.3887C83.401 33.4147 83.2936 33.4408 83.1895 33.4668C83.0918 33.4928 83.0039 33.5156 82.9258 33.5352C82.8477 33.5547 82.7891 33.5677 82.75 33.5742C82.7305 33.5807 82.6882 33.5872 82.623 33.5938C82.5579 33.6003 82.4863 33.61 82.4082 33.623C82.3366 33.6296 82.2682 33.6393 82.2031 33.6523C82.138 33.6589 82.099 33.6654 82.0859 33.6719C82.0664 33.6784 82.0436 33.6947 82.0176 33.7207C81.998 33.7402 81.9883 33.7533 81.9883 33.7598C81.9883 33.89 82.0241 34.0007 82.0957 34.0918C82.1673 34.1764 82.2585 34.248 82.3691 34.3066C82.4798 34.3652 82.6035 34.4108 82.7402 34.4434C82.8835 34.4694 83.0234 34.4922 83.1602 34.5117C83.2969 34.5247 83.4238 34.5312 83.541 34.5312C83.6582 34.5312 83.7526 34.5312 83.8242 34.5312C84.1497 34.5312 84.4688 34.515 84.7812 34.4824C85.0938 34.4434 85.4128 34.4238 85.7383 34.4238V34.502C85.7383 34.541 85.7318 34.5833 85.7188 34.6289C85.7122 34.668 85.6992 34.707 85.6797 34.7461C85.6602 34.7786 85.6341 34.7982 85.6016 34.8047C85.3542 34.8568 85.1328 34.8991 84.9375 34.9316C84.7487 34.9577 84.5697 34.9772 84.4004 34.9902C84.2311 34.9967 84.0553 35 83.873 35C83.6908 35.0065 83.4889 35.0098 83.2676 35.0098H83.1016C83.0299 35.0098 82.9518 35.0065 82.8672 35C82.7826 35 82.7012 35 82.623 35H82.457C82.2552 34.9479 82.0794 34.8665 81.9297 34.7559C81.7865 34.6387 81.6693 34.502 81.5781 34.3457C81.487 34.1895 81.4186 34.0202 81.373 33.8379C81.334 33.6556 81.3145 33.4701 81.3145 33.2812ZM83.502 32.1289C83.4173 32.1289 83.3197 32.1387 83.209 32.1582C83.1048 32.1712 82.9941 32.1973 82.877 32.2363C82.7663 32.2689 82.6556 32.3145 82.5449 32.373C82.4342 32.4251 82.3366 32.4902 82.252 32.5684C82.1673 32.64 82.0957 32.7214 82.0371 32.8125C81.985 32.9036 81.959 33.0046 81.959 33.1152H82.3594C82.5026 33.1152 82.6491 33.1087 82.7988 33.0957C82.9486 33.0827 83.0951 33.0632 83.2383 33.0371C83.3815 33.0046 83.5052 32.959 83.6094 32.9004C83.7201 32.8353 83.8079 32.7539 83.873 32.6562C83.9447 32.5586 83.9805 32.4382 83.9805 32.2949V32.2461L83.8828 32.1484C83.8698 32.1484 83.8438 32.1484 83.8047 32.1484C83.7721 32.1419 83.7363 32.1387 83.6973 32.1387C83.6582 32.1322 83.6191 32.1289 83.5801 32.1289C83.5475 32.1289 83.5215 32.1289 83.502 32.1289ZM86.7441 34.9121C86.6921 34.8796 86.6497 34.8372 86.6172 34.7852C86.5846 34.7266 86.5586 34.6647 86.5391 34.5996C86.5195 34.5345 86.5 34.4694 86.4805 34.4043C86.4674 34.3392 86.4609 34.2871 86.4609 34.248C86.4479 34.1764 86.4316 34.0658 86.4121 33.916C86.3926 33.7663 86.3698 33.5938 86.3438 33.3984C86.3177 33.1966 86.2917 32.985 86.2656 32.7637C86.2396 32.5423 86.2135 32.3307 86.1875 32.1289C86.1615 31.9206 86.1387 31.735 86.1191 31.5723C86.0996 31.4095 86.0866 31.2858 86.0801 31.2012C86.0801 31.1882 86.0768 31.1621 86.0703 31.123C86.0703 31.084 86.0703 31.0579 86.0703 31.0449C86.0703 30.9473 86.0898 30.8854 86.1289 30.8594C86.168 30.8268 86.2363 30.8105 86.334 30.8105C86.4512 30.8105 86.5358 30.8561 86.5879 30.9473C86.64 31.0319 86.6758 31.1426 86.6953 31.2793C86.7214 31.416 86.7344 31.5625 86.7344 31.7188C86.7409 31.875 86.7507 32.0215 86.7637 32.1582C86.7832 32.2949 86.8125 32.4089 86.8516 32.5C86.8906 32.5846 86.959 32.627 87.0566 32.627C87.1999 32.627 87.3431 32.6172 87.4863 32.5977C87.6296 32.5781 87.7728 32.5553 87.916 32.5293C88.0592 32.4967 88.2025 32.474 88.3457 32.4609C88.4954 32.4414 88.6419 32.4316 88.7852 32.4316H88.8828C88.9349 32.4316 88.987 32.4316 89.0391 32.4316C89.0977 32.4316 89.153 32.4316 89.2051 32.4316H89.3027C89.4525 32.5098 89.5794 32.6107 89.6836 32.7344C89.7943 32.8516 89.8854 32.9818 89.957 33.125C90.0352 33.2617 90.097 33.4115 90.1426 33.5742C90.1882 33.7305 90.2272 33.8867 90.2598 34.043C90.2272 34.1927 90.1589 34.3197 90.0547 34.4238C89.957 34.528 89.8398 34.6159 89.7031 34.6875C89.5664 34.7591 89.4167 34.8177 89.2539 34.8633C89.0911 34.9023 88.9251 34.9349 88.7559 34.9609C88.5931 34.9805 88.4368 34.9935 88.2871 35C88.1374 35.0065 88.0039 35.0098 87.8867 35.0098C87.776 35.0098 87.6751 35.0065 87.584 35C87.4993 35 87.4147 34.9967 87.3301 34.9902C87.2454 34.9837 87.1543 34.974 87.0566 34.9609C86.9655 34.9479 86.8613 34.9316 86.7441 34.9121ZM87.0176 33.623C87.0176 33.903 87.0729 34.1113 87.1836 34.248C87.2943 34.3783 87.4928 34.4434 87.7793 34.4434C87.8379 34.4434 87.9258 34.4434 88.043 34.4434C88.1602 34.4368 88.2839 34.4271 88.4141 34.4141C88.5508 34.401 88.6908 34.3848 88.834 34.3652C88.9772 34.3392 89.1042 34.3066 89.2148 34.2676C89.332 34.222 89.4264 34.1699 89.498 34.1113C89.5697 34.0462 89.6055 33.9648 89.6055 33.8672C89.6055 33.724 89.5794 33.6003 89.5273 33.4961C89.4753 33.3854 89.4036 33.2943 89.3125 33.2227C89.2214 33.1445 89.1172 33.0859 89 33.0469C88.8828 33.0078 88.7591 32.9883 88.6289 32.9883C88.4922 32.9883 88.3522 32.9948 88.209 33.0078C88.0723 33.0208 87.9323 33.0404 87.7891 33.0664C87.6458 33.0859 87.5091 33.125 87.3789 33.1836C87.2487 33.2357 87.1283 33.3008 87.0176 33.3789C87.0176 33.4049 87.0176 33.4473 87.0176 33.5059C87.0176 33.5645 87.0176 33.6035 87.0176 33.623ZM93.7266 33.5547C93.7266 33.3529 93.7266 33.1445 93.7266 32.9297C93.7266 32.7083 93.7363 32.487 93.7559 32.2656C93.7754 32.0443 93.8014 31.8294 93.834 31.6211C93.873 31.4128 93.9316 31.2077 94.0098 31.0059C93.9316 31.0319 93.873 31.0384 93.834 31.0254C93.7949 31.0124 93.7656 30.9896 93.7461 30.957C93.7266 30.9245 93.7135 30.8887 93.707 30.8496C93.707 30.804 93.707 30.765 93.707 30.7324C93.707 30.6478 93.7201 30.5859 93.7461 30.5469C93.7721 30.5078 93.8079 30.4818 93.8535 30.4688C93.8991 30.4492 93.9512 30.4395 94.0098 30.4395C94.0749 30.4329 94.14 30.4297 94.2051 30.4297C94.4395 30.4297 94.6836 30.4492 94.9375 30.4883C95.1979 30.5273 95.4551 30.5892 95.709 30.6738C95.9629 30.752 96.2038 30.8561 96.4316 30.9863C96.6595 31.11 96.8613 31.263 97.0371 31.4453C97.2194 31.6211 97.3626 31.8197 97.4668 32.041C97.571 32.2624 97.623 32.5163 97.623 32.8027C97.623 33.1478 97.5547 33.457 97.418 33.7305C97.2812 34.0039 97.0957 34.235 96.8613 34.4238C96.6335 34.6061 96.3665 34.7493 96.0605 34.8535C95.7546 34.9577 95.4388 35.0098 95.1133 35.0098C94.9049 35.0098 94.7129 34.974 94.5371 34.9023C94.3678 34.8307 94.2214 34.7331 94.0977 34.6094C93.974 34.4792 93.8796 34.3229 93.8145 34.1406C93.7559 33.9583 93.7266 33.763 93.7266 33.5547ZM94.3906 34.1406C94.4362 34.2188 94.5013 34.2773 94.5859 34.3164C94.6706 34.3555 94.7585 34.3848 94.8496 34.4043C94.9408 34.4238 95.0319 34.4368 95.123 34.4434C95.2207 34.4434 95.3086 34.4434 95.3867 34.4434C95.6081 34.4434 95.8197 34.4043 96.0215 34.3262C96.2298 34.2415 96.4121 34.1276 96.5684 33.9844C96.7246 33.8411 96.8451 33.6719 96.9297 33.4766C97.0208 33.2747 97.0664 33.0599 97.0664 32.832C97.0664 32.6497 97.0273 32.4805 96.9492 32.3242C96.8711 32.1615 96.7669 32.0117 96.6367 31.875C96.513 31.7383 96.3665 31.6178 96.1973 31.5137C96.0345 31.403 95.862 31.3118 95.6797 31.2402C95.4974 31.1621 95.3151 31.1035 95.1328 31.0645C94.9505 31.0254 94.7747 31.0059 94.6055 31.0059H94.5762C94.4785 31.1035 94.4069 31.237 94.3613 31.4062C94.3223 31.569 94.2962 31.7448 94.2832 31.9336C94.2767 32.1159 94.2767 32.2982 94.2832 32.4805C94.2897 32.6562 94.293 32.7995 94.293 32.9102V33.0957C94.293 33.1348 94.2962 33.2064 94.3027 33.3105C94.3158 33.4082 94.3255 33.5156 94.332 33.6328C94.3385 33.7435 94.3483 33.8477 94.3613 33.9453C94.3743 34.043 94.3841 34.1081 94.3906 34.1406ZM98.0039 33.2812C98.0039 33.0599 98.0658 32.8451 98.1895 32.6367C98.3132 32.4284 98.4694 32.2461 98.6582 32.0898C98.8535 31.9336 99.0651 31.8099 99.293 31.7188C99.5273 31.6276 99.7487 31.582 99.957 31.582C100.126 31.582 100.292 31.6048 100.455 31.6504C100.624 31.6895 100.774 31.7546 100.904 31.8457C101.035 31.9368 101.139 32.0508 101.217 32.1875C101.301 32.3177 101.344 32.474 101.344 32.6562C101.344 32.7409 101.337 32.8092 101.324 32.8613C101.318 32.9069 101.298 32.9492 101.266 32.9883C101.233 33.0208 101.191 33.0534 101.139 33.0859C101.093 33.112 101.035 33.1478 100.963 33.1934C100.924 33.1999 100.865 33.2161 100.787 33.2422C100.709 33.2617 100.618 33.2845 100.514 33.3105C100.416 33.3366 100.312 33.3626 100.201 33.3887C100.09 33.4147 99.9831 33.4408 99.8789 33.4668C99.7812 33.4928 99.6934 33.5156 99.6152 33.5352C99.5371 33.5547 99.4785 33.5677 99.4395 33.5742C99.4199 33.5807 99.3776 33.5872 99.3125 33.5938C99.2474 33.6003 99.1758 33.61 99.0977 33.623C99.026 33.6296 98.9577 33.6393 98.8926 33.6523C98.8275 33.6589 98.7884 33.6654 98.7754 33.6719C98.7559 33.6784 98.7331 33.6947 98.707 33.7207C98.6875 33.7402 98.6777 33.7533 98.6777 33.7598C98.6777 33.89 98.7135 34.0007 98.7852 34.0918C98.8568 34.1764 98.9479 34.248 99.0586 34.3066C99.1693 34.3652 99.293 34.4108 99.4297 34.4434C99.5729 34.4694 99.7129 34.4922 99.8496 34.5117C99.9863 34.5247 100.113 34.5312 100.23 34.5312C100.348 34.5312 100.442 34.5312 100.514 34.5312C100.839 34.5312 101.158 34.515 101.471 34.4824C101.783 34.4434 102.102 34.4238 102.428 34.4238V34.502C102.428 34.541 102.421 34.5833 102.408 34.6289C102.402 34.668 102.389 34.707 102.369 34.7461C102.35 34.7786 102.324 34.7982 102.291 34.8047C102.044 34.8568 101.822 34.8991 101.627 34.9316C101.438 34.9577 101.259 34.9772 101.09 34.9902C100.921 34.9967 100.745 35 100.562 35C100.38 35.0065 100.178 35.0098 99.957 35.0098H99.791C99.7194 35.0098 99.6413 35.0065 99.5566 35C99.472 35 99.3906 35 99.3125 35H99.1465C98.9447 34.9479 98.7689 34.8665 98.6191 34.7559C98.4759 34.6387 98.3587 34.502 98.2676 34.3457C98.1764 34.1895 98.1081 34.0202 98.0625 33.8379C98.0234 33.6556 98.0039 33.4701 98.0039 33.2812ZM100.191 32.1289C100.107 32.1289 100.009 32.1387 99.8984 32.1582C99.7943 32.1712 99.6836 32.1973 99.5664 32.2363C99.4557 32.2689 99.3451 32.3145 99.2344 32.373C99.1237 32.4251 99.026 32.4902 98.9414 32.5684C98.8568 32.64 98.7852 32.7214 98.7266 32.8125C98.6745 32.9036 98.6484 33.0046 98.6484 33.1152H99.0488C99.1921 33.1152 99.3385 33.1087 99.4883 33.0957C99.638 33.0827 99.7845 33.0632 99.9277 33.0371C100.071 33.0046 100.195 32.959 100.299 32.9004C100.41 32.8353 100.497 32.7539 100.562 32.6562C100.634 32.5586 100.67 32.4382 100.67 32.2949V32.2461L100.572 32.1484C100.559 32.1484 100.533 32.1484 100.494 32.1484C100.462 32.1419 100.426 32.1387 100.387 32.1387C100.348 32.1322 100.309 32.1289 100.27 32.1289C100.237 32.1289 100.211 32.1289 100.191 32.1289ZM103.609 34.4043V34.1992C103.609 34.1146 103.616 34.0332 103.629 33.9551C103.642 33.877 103.668 33.8086 103.707 33.75C103.746 33.6914 103.801 33.6621 103.873 33.6621V33.6719H103.902L104.098 34.4238C104.098 34.4499 104.111 34.4694 104.137 34.4824C104.163 34.4954 104.189 34.5085 104.215 34.5215C104.247 34.528 104.277 34.5312 104.303 34.5312C104.335 34.5312 104.361 34.5312 104.381 34.5312C104.394 34.5312 104.41 34.5312 104.43 34.5312C104.456 34.5247 104.472 34.5215 104.479 34.5215C104.518 34.515 104.592 34.4987 104.703 34.4727C104.814 34.4401 104.928 34.4108 105.045 34.3848C105.169 34.3587 105.283 34.3327 105.387 34.3066C105.497 34.2741 105.576 34.2546 105.621 34.248C105.654 34.196 105.702 34.1504 105.768 34.1113C105.833 34.0658 105.898 34.0234 105.963 33.9844C106.028 33.9453 106.083 33.903 106.129 33.8574C106.174 33.8118 106.197 33.7533 106.197 33.6816C106.197 33.5189 106.155 33.3887 106.07 33.291C105.992 33.1934 105.888 33.1217 105.758 33.0762C105.634 33.0241 105.501 32.9883 105.357 32.9688C105.214 32.9492 105.077 32.9297 104.947 32.9102C104.895 32.9036 104.811 32.8939 104.693 32.8809C104.583 32.8613 104.456 32.8418 104.312 32.8223C104.169 32.8027 104.02 32.7832 103.863 32.7637C103.707 32.7376 103.554 32.7181 103.404 32.7051C103.261 32.6855 103.131 32.6693 103.014 32.6562C102.903 32.6432 102.822 32.6335 102.77 32.627C102.73 32.6009 102.688 32.5553 102.643 32.4902C102.597 32.4251 102.574 32.373 102.574 32.334C102.574 32.2233 102.633 32.1224 102.75 32.0312C102.874 31.9336 103.027 31.8457 103.209 31.7676C103.391 31.6895 103.596 31.6211 103.824 31.5625C104.059 31.5039 104.286 31.4518 104.508 31.4062C104.736 31.3607 104.944 31.3281 105.133 31.3086C105.328 31.2891 105.478 31.2793 105.582 31.2793C105.66 31.2793 105.732 31.3053 105.797 31.3574C105.868 31.4095 105.904 31.4844 105.904 31.582C105.904 31.6602 105.882 31.7188 105.836 31.7578C105.797 31.7904 105.745 31.8132 105.68 31.8262C105.621 31.8327 105.559 31.8392 105.494 31.8457C105.436 31.8457 105.38 31.849 105.328 31.8555C105.224 31.875 105.09 31.901 104.928 31.9336C104.771 31.9661 104.615 31.9987 104.459 32.0312C104.303 32.0638 104.173 32.0898 104.068 32.1094L103.902 32.1484V32.2559C104.026 32.2559 104.182 32.2591 104.371 32.2656C104.56 32.2721 104.762 32.2884 104.977 32.3145C105.191 32.3405 105.403 32.3828 105.611 32.4414C105.826 32.4935 106.018 32.5684 106.188 32.666C106.357 32.7572 106.493 32.8743 106.598 33.0176C106.708 33.1543 106.764 33.3236 106.764 33.5254C106.764 33.7988 106.689 34.0299 106.539 34.2188C106.389 34.4076 106.201 34.5605 105.973 34.6777C105.745 34.7949 105.497 34.8796 105.23 34.9316C104.964 34.9837 104.716 35.0098 104.488 35.0098C104.397 35.0098 104.299 35.0033 104.195 34.9902C104.091 34.9707 103.993 34.9382 103.902 34.8926C103.818 34.847 103.746 34.7852 103.688 34.707C103.635 34.6289 103.609 34.528 103.609 34.4043ZM107.516 34.9121C107.47 34.7819 107.428 34.6419 107.389 34.4922C107.356 34.3359 107.327 34.1764 107.301 34.0137C107.281 33.8509 107.265 33.6914 107.252 33.5352C107.239 33.3789 107.232 33.2324 107.232 33.0957C107.232 33.0762 107.236 33.0404 107.242 32.9883C107.249 32.9297 107.255 32.8711 107.262 32.8125C107.275 32.7539 107.288 32.6986 107.301 32.6465C107.314 32.5879 107.324 32.5488 107.33 32.5293C107.337 32.5228 107.366 32.5163 107.418 32.5098C107.47 32.5033 107.503 32.5 107.516 32.5C107.6 32.5 107.669 32.5456 107.721 32.6367C107.773 32.7279 107.818 32.8451 107.857 32.9883C107.896 33.1315 107.923 33.291 107.936 33.4668C107.955 33.6361 107.971 33.8021 107.984 33.9648C107.997 34.1211 108.004 34.2611 108.004 34.3848C108.004 34.5085 108.004 34.5931 108.004 34.6387C108.004 34.6582 108.004 34.6908 108.004 34.7363C108.01 34.7754 108.01 34.8177 108.004 34.8633C107.997 34.9023 107.981 34.9349 107.955 34.9609C107.936 34.987 107.9 35 107.848 35H107.809C107.796 35 107.776 34.9967 107.75 34.9902C107.724 34.9772 107.695 34.9674 107.662 34.9609C107.63 34.9479 107.6 34.9382 107.574 34.9316C107.548 34.9251 107.529 34.9186 107.516 34.9121ZM107.408 30.6055C107.408 30.4427 107.512 30.3223 107.721 30.2441C107.766 30.2246 107.805 30.2311 107.838 30.2637C107.877 30.2962 107.906 30.3385 107.926 30.3906C107.952 30.4427 107.968 30.498 107.975 30.5566C107.988 30.6087 107.994 30.6478 107.994 30.6738C107.994 30.7129 107.984 30.7454 107.965 30.7715C107.945 30.791 107.919 30.804 107.887 30.8105C107.861 30.8171 107.831 30.8203 107.799 30.8203H107.721C107.63 30.8203 107.555 30.8105 107.496 30.791C107.438 30.7715 107.408 30.7096 107.408 30.6055ZM108.346 37.3633C108.424 37.3633 108.495 37.3991 108.561 37.4707C108.632 37.5488 108.701 37.6367 108.766 37.7344C108.831 37.832 108.893 37.9297 108.951 38.0273C109.01 38.1315 109.072 38.2031 109.137 38.2422C109.273 38.3529 109.426 38.444 109.596 38.5156C109.771 38.5872 109.951 38.6426 110.133 38.6816C110.315 38.7272 110.497 38.7598 110.68 38.7793C110.868 38.8053 111.051 38.8184 111.227 38.8184C111.24 38.8184 111.262 38.8151 111.295 38.8086C111.334 38.8086 111.373 38.8086 111.412 38.8086C111.451 38.8086 111.487 38.8053 111.52 38.7988C111.559 38.7988 111.585 38.7988 111.598 38.7988C111.695 38.7533 111.77 38.6914 111.822 38.6133C111.881 38.5417 111.92 38.4603 111.939 38.3691C111.965 38.2845 111.982 38.1934 111.988 38.0957C111.995 37.998 111.998 37.9004 111.998 37.8027C111.998 37.7311 111.992 37.6074 111.979 37.4316C111.972 37.2624 111.959 37.0605 111.939 36.8262C111.92 36.5983 111.894 36.3574 111.861 36.1035C111.835 35.8496 111.796 35.6087 111.744 35.3809C111.699 35.153 111.64 34.9544 111.568 34.7852C111.497 34.6159 111.415 34.4987 111.324 34.4336C111.259 34.5052 111.194 34.5768 111.129 34.6484C111.064 34.7135 110.989 34.7721 110.904 34.8242C110.826 34.8763 110.745 34.9186 110.66 34.9512C110.576 34.9837 110.481 35 110.377 35C110.169 35 109.947 34.9772 109.713 34.9316C109.479 34.8861 109.26 34.8079 109.059 34.6973C108.857 34.5866 108.691 34.4466 108.561 34.2773C108.43 34.1016 108.365 33.8835 108.365 33.623C108.365 33.3822 108.43 33.1803 108.561 33.0176C108.691 32.8483 108.85 32.7148 109.039 32.6172C109.234 32.513 109.446 32.4382 109.674 32.3926C109.902 32.347 110.117 32.3242 110.318 32.3242C110.383 32.3242 110.462 32.3275 110.553 32.334C110.65 32.334 110.748 32.3405 110.846 32.3535C110.943 32.3665 111.035 32.3861 111.119 32.4121C111.204 32.4382 111.272 32.4772 111.324 32.5293C111.331 32.5423 111.337 32.5781 111.344 32.6367C111.357 32.6888 111.367 32.7474 111.373 32.8125C111.386 32.8776 111.396 32.9395 111.402 32.998C111.409 33.0566 111.412 33.0892 111.412 33.0957C111.438 33.2129 111.474 33.3268 111.52 33.4375C111.572 33.5417 111.627 33.6523 111.686 33.7695C111.744 33.8802 111.799 33.9909 111.852 34.1016C111.904 34.2122 111.946 34.3229 111.979 34.4336C112.154 34.9935 112.298 35.5501 112.408 36.1035C112.519 36.6569 112.574 37.2266 112.574 37.8125C112.574 37.8385 112.571 37.8841 112.564 37.9492C112.564 38.0208 112.564 38.0924 112.564 38.1641C112.564 38.2422 112.561 38.3138 112.555 38.3789C112.555 38.4505 112.555 38.4993 112.555 38.5254C112.548 38.6947 112.496 38.8346 112.398 38.9453C112.301 39.0625 112.18 39.1504 112.037 39.209C111.9 39.2741 111.751 39.3197 111.588 39.3457C111.432 39.3783 111.292 39.3945 111.168 39.3945C110.96 39.3945 110.742 39.375 110.514 39.3359C110.292 39.3034 110.077 39.2513 109.869 39.1797C109.661 39.1081 109.462 39.0169 109.273 38.9062C109.091 38.8021 108.932 38.6751 108.795 38.5254C108.658 38.3757 108.548 38.2064 108.463 38.0176C108.385 37.8288 108.346 37.6107 108.346 37.3633ZM108.932 33.6816C108.932 33.8118 108.971 33.9258 109.049 34.0234C109.127 34.1211 109.225 34.2025 109.342 34.2676C109.459 34.3262 109.583 34.3717 109.713 34.4043C109.843 34.4303 109.957 34.4434 110.055 34.4434C110.426 34.4434 110.683 34.3522 110.826 34.1699C110.969 33.9811 111.041 33.7077 111.041 33.3496C111.041 33.2454 111.021 33.1641 110.982 33.1055C110.943 33.0404 110.891 32.9948 110.826 32.9688C110.761 32.9427 110.686 32.9264 110.602 32.9199C110.517 32.9069 110.432 32.9004 110.348 32.9004C110.23 32.9004 110.09 32.9134 109.928 32.9395C109.765 32.959 109.609 32.998 109.459 33.0566C109.316 33.1152 109.192 33.1966 109.088 33.3008C108.984 33.3984 108.932 33.5254 108.932 33.6816ZM114.918 32.9004C114.69 32.9004 114.488 32.9427 114.312 33.0273C114.143 33.1055 113.99 33.2096 113.854 33.3398C113.717 33.4701 113.603 33.61 113.512 33.7598C113.421 33.903 113.339 34.0397 113.268 34.1699C113.202 34.3001 113.15 34.4076 113.111 34.4922C113.079 34.5768 113.056 34.6191 113.043 34.6191C112.867 34.6191 112.743 34.5736 112.672 34.4824C112.6 34.3913 112.555 34.2806 112.535 34.1504C112.516 34.0137 112.512 33.8737 112.525 33.7305C112.545 33.5807 112.555 33.4505 112.555 33.3398V33.1738C112.555 33.0957 112.555 33.0143 112.555 32.9297C112.561 32.8451 112.564 32.7669 112.564 32.6953V32.5293C112.584 32.4772 112.61 32.4479 112.643 32.4414C112.675 32.4349 112.711 32.4316 112.75 32.4316C112.809 32.4316 112.857 32.4674 112.896 32.5391C112.936 32.6042 112.971 32.6855 113.004 32.7832C113.036 32.8809 113.062 32.9785 113.082 33.0762C113.102 33.1673 113.118 33.2389 113.131 33.291C113.209 33.278 113.281 33.2454 113.346 33.1934C113.411 33.1413 113.476 33.0794 113.541 33.0078C113.613 32.9362 113.688 32.8613 113.766 32.7832C113.844 32.7051 113.935 32.6335 114.039 32.5684C114.143 32.4967 114.264 32.4382 114.4 32.3926C114.544 32.347 114.706 32.3242 114.889 32.3242C115.253 32.3242 115.553 32.4056 115.787 32.5684C116.021 32.7246 116.201 32.9329 116.324 33.1934C116.454 33.4473 116.542 33.737 116.588 34.0625C116.633 34.3815 116.656 34.707 116.656 35.0391C116.461 35.0391 116.308 35.0098 116.197 34.9512C116.093 34.8861 116.018 34.8047 115.973 34.707C115.927 34.6029 115.901 34.4889 115.895 34.3652C115.888 34.235 115.885 34.1048 115.885 33.9746C115.885 33.8379 115.875 33.7044 115.855 33.5742C115.842 33.444 115.803 33.3301 115.738 33.2324C115.68 33.1348 115.585 33.0566 115.455 32.998C115.331 32.9329 115.152 32.9004 114.918 32.9004ZM116.93 33.2812C116.93 33.0599 116.992 32.8451 117.115 32.6367C117.239 32.4284 117.395 32.2461 117.584 32.0898C117.779 31.9336 117.991 31.8099 118.219 31.7188C118.453 31.6276 118.674 31.582 118.883 31.582C119.052 31.582 119.218 31.6048 119.381 31.6504C119.55 31.6895 119.7 31.7546 119.83 31.8457C119.96 31.9368 120.064 32.0508 120.143 32.1875C120.227 32.3177 120.27 32.474 120.27 32.6562C120.27 32.7409 120.263 32.8092 120.25 32.8613C120.243 32.9069 120.224 32.9492 120.191 32.9883C120.159 33.0208 120.117 33.0534 120.064 33.0859C120.019 33.112 119.96 33.1478 119.889 33.1934C119.85 33.1999 119.791 33.2161 119.713 33.2422C119.635 33.2617 119.544 33.2845 119.439 33.3105C119.342 33.3366 119.238 33.3626 119.127 33.3887C119.016 33.4147 118.909 33.4408 118.805 33.4668C118.707 33.4928 118.619 33.5156 118.541 33.5352C118.463 33.5547 118.404 33.5677 118.365 33.5742C118.346 33.5807 118.303 33.5872 118.238 33.5938C118.173 33.6003 118.102 33.61 118.023 33.623C117.952 33.6296 117.883 33.6393 117.818 33.6523C117.753 33.6589 117.714 33.6654 117.701 33.6719C117.682 33.6784 117.659 33.6947 117.633 33.7207C117.613 33.7402 117.604 33.7533 117.604 33.7598C117.604 33.89 117.639 34.0007 117.711 34.0918C117.783 34.1764 117.874 34.248 117.984 34.3066C118.095 34.3652 118.219 34.4108 118.355 34.4434C118.499 34.4694 118.639 34.4922 118.775 34.5117C118.912 34.5247 119.039 34.5312 119.156 34.5312C119.273 34.5312 119.368 34.5312 119.439 34.5312C119.765 34.5312 120.084 34.515 120.396 34.4824C120.709 34.4434 121.028 34.4238 121.354 34.4238V34.502C121.354 34.541 121.347 34.5833 121.334 34.6289C121.327 34.668 121.314 34.707 121.295 34.7461C121.275 34.7786 121.249 34.7982 121.217 34.8047C120.969 34.8568 120.748 34.8991 120.553 34.9316C120.364 34.9577 120.185 34.9772 120.016 34.9902C119.846 34.9967 119.671 35 119.488 35C119.306 35.0065 119.104 35.0098 118.883 35.0098H118.717C118.645 35.0098 118.567 35.0065 118.482 35C118.398 35 118.316 35 118.238 35H118.072C117.87 34.9479 117.695 34.8665 117.545 34.7559C117.402 34.6387 117.285 34.502 117.193 34.3457C117.102 34.1895 117.034 34.0202 116.988 33.8379C116.949 33.6556 116.93 33.4701 116.93 33.2812ZM119.117 32.1289C119.033 32.1289 118.935 32.1387 118.824 32.1582C118.72 32.1712 118.609 32.1973 118.492 32.2363C118.382 32.2689 118.271 32.3145 118.16 32.373C118.049 32.4251 117.952 32.4902 117.867 32.5684C117.783 32.64 117.711 32.7214 117.652 32.8125C117.6 32.9036 117.574 33.0046 117.574 33.1152H117.975C118.118 33.1152 118.264 33.1087 118.414 33.0957C118.564 33.0827 118.71 33.0632 118.854 33.0371C118.997 33.0046 119.12 32.959 119.225 32.9004C119.335 32.8353 119.423 32.7539 119.488 32.6562C119.56 32.5586 119.596 32.4382 119.596 32.2949V32.2461L119.498 32.1484C119.485 32.1484 119.459 32.1484 119.42 32.1484C119.387 32.1419 119.352 32.1387 119.312 32.1387C119.273 32.1322 119.234 32.1289 119.195 32.1289C119.163 32.1289 119.137 32.1289 119.117 32.1289ZM121.783 33.0957C121.777 33.0957 121.76 33.0859 121.734 33.0664C121.708 33.0404 121.695 33.0176 121.695 32.998C121.689 32.998 121.686 32.9915 121.686 32.9785V32.9297C121.686 32.9232 121.689 32.9167 121.695 32.9102C121.767 32.8385 121.826 32.7865 121.871 32.7539C121.923 32.7214 121.992 32.7051 122.076 32.7051C122.102 32.7051 122.125 32.7116 122.145 32.7246C122.171 32.7376 122.19 32.7507 122.203 32.7637C122.216 32.7767 122.229 32.7897 122.242 32.8027C122.262 32.8158 122.281 32.8223 122.301 32.8223C122.32 32.8223 122.359 32.793 122.418 32.7344C122.477 32.6693 122.555 32.5911 122.652 32.5C122.75 32.4089 122.87 32.3112 123.014 32.207C123.157 32.0964 123.316 31.9954 123.492 31.9043C123.674 31.8132 123.87 31.7383 124.078 31.6797C124.293 31.6146 124.527 31.582 124.781 31.582H124.84C124.866 31.5885 124.918 31.6016 124.996 31.6211C125.081 31.6341 125.169 31.6536 125.26 31.6797C125.351 31.6992 125.436 31.7188 125.514 31.7383C125.598 31.7513 125.657 31.7611 125.689 31.7676C125.696 31.7741 125.709 31.7871 125.729 31.8066C125.748 31.8197 125.768 31.8359 125.787 31.8555C125.807 31.8685 125.823 31.8848 125.836 31.9043C125.855 31.9238 125.868 31.9401 125.875 31.9531C125.875 31.9596 125.878 31.9694 125.885 31.9824C125.885 31.9824 125.885 31.9857 125.885 31.9922C125.891 31.9987 125.895 32.002 125.895 32.002L125.885 32.0215C125.885 32.0215 125.885 32.0247 125.885 32.0312C125.878 32.0378 125.875 32.0443 125.875 32.0508C125.868 32.0703 125.852 32.0931 125.826 32.1191C125.8 32.1387 125.787 32.1484 125.787 32.1484H124.068C123.925 32.1484 123.769 32.1908 123.6 32.2754C123.437 32.3535 123.281 32.4577 123.131 32.5879C122.988 32.7116 122.867 32.8548 122.77 33.0176C122.678 33.1738 122.633 33.3268 122.633 33.4766V34.8633C122.561 34.8633 122.509 34.873 122.477 34.8926C122.444 34.9056 122.415 34.9219 122.389 34.9414C122.369 34.9609 122.346 34.9772 122.32 34.9902C122.294 35.0033 122.258 35.0098 122.213 35.0098H122.193C122.187 35.0098 122.18 35.0065 122.174 35C122.148 34.9935 122.125 34.9805 122.105 34.9609C122.086 34.9349 122.076 34.9186 122.076 34.9121L121.783 33.0957Z" fill="white"/>
</g>
<defs>
<filter id="filter0_d_102_2" x="22.3047" y="5.28125" width="157.32" height="37.4609" filterUnits="userSpaceOnUse" color-interpolation-filters="sRGB">
<feFlood flood-opacity="0" result="BackgroundImageFix"/>
<feColorMatrix in="SourceAlpha" type="matrix" values="0 0 0 0 0 0 0 0 0 0 0 0 0 0 0 0 0 0 127 0" result="hardAlpha"/>
<feOffset dy="4"/>
<feGaussianBlur stdDeviation="2"/>
<feComposite in2="hardAlpha" operator="out"/>
<feColorMatrix type="matrix" values="0 0 0 0 0 0 0 0 0 0 0 0 0 0 0 0 0 0 0.25 0"/>
<feBlend mode="normal" in2="BackgroundImageFix" result="effect1_dropShadow_102_2"/>
<feBlend mode="normal" in="SourceGraphic" in2="effect1_dropShadow_102_2" result="shape"/>
</filter>
<clipPath id="clip0_102_2">
<rect width="200" height="40" fill="white"/>
</clipPath>
</defs>
</svg>
